<?xml version="1.0" encoding="utf-8"?>
<!-- Generator: Adobe Illustrator 14.0.0, SVG Export Plug-In . SVG Version: 6.00 Build 43363)  -->
<!DOCTYPE svg PUBLIC "-//W3C//DTD SVG 1.1//EN" "http://www.w3.org/Graphics/SVG/1.1/DTD/svg11.dtd">
<svg version="1.1" id="Layer_1" xmlns="http://www.w3.org/2000/svg" xmlns:xlink="http://www.w3.org/1999/xlink" x="0px" y="0px"
	 width="316.8px" height="216px" viewBox="0 0 316.8 216" enable-background="new 0 0 316.8 216" xml:space="preserve">
<path opacity="0.34" fill="#FFFFFF" d="M33.457,46.859c0,0,1.383-3.24,5.078-3.525c0,0,7.391,7.392,13.078,3.128
	c0,0,5.118,5.401,8.529,3.126l-7.392,5.402c0,0-13.93,1.422-17.626-7.107"/>
<path opacity="0.46" fill="#FFFFFF" d="M48.77,110.145c0,0,0.426-5.971,6.396-5.544c0,0-0.853-17.057,6.824-17.057
	c0,0,2.558-13.646,9.808-11.514c0,0,5.118-7.25,8.529-6.397l6.823-6.396l0.427-15.778c0,0-26.994-14.878-36.802,22.222"/>
<path fill="#FFFFFF" d="M249.839,21.017c0,0,61.973,1.874,41.93,39.971l-6.749,3.313C285.02,64.302,309.54,34.237,249.839,21.017z"
	/>
<g>
	<g>
		<path fill="#FFFFFF" d="M125.424,79.534l-2.364-0.003l0.164-1.379c0.076-0.72-0.088-1.381-0.496-1.981
			c-0.409-0.6-0.903-0.901-1.486-0.901h-7.579l-5.241,45.298c-0.078,0.696,0.1,1.334,0.534,1.913c0.433,0.58,0.948,0.87,1.541,0.87
			h1.184l-0.35,2.878H92.694l0.35-2.878h1.164c0.582,0,1.144-0.293,1.688-0.883c0.542-0.59,0.854-1.237,0.933-1.945l5.243-45.253
			h-7.44c-0.581,0-1.152,0.301-1.714,0.903c-0.563,0.604-0.882,1.265-0.959,1.988l-0.164,1.377l-2.362-0.004l1.165-9.915h35.992
			L125.424,79.534z"/>
		<path fill="#FFFFFF" d="M146.395,126.229h-18.635l0.355-2.878h1.179c0.59,0,1.16-0.288,1.711-0.864
			c0.55-0.576,0.865-1.213,0.944-1.906l5.243-45.246c0.077-0.709-0.092-1.358-0.505-1.951c-0.415-0.589-0.917-0.886-1.511-0.886
			h-1.184l0.292-2.878h18.635l-0.291,2.878h-1.165c-0.583,0-1.154,0.295-1.717,0.884c-0.563,0.59-0.885,1.238-0.961,1.944
			l-5.244,45.248c-0.078,0.695,0.087,1.33,0.495,1.909c0.409,0.579,0.923,0.867,1.544,0.867h1.167L146.395,126.229z"/>
		<path fill="#FFFFFF" d="M195.483,79.534l-2.364-0.003l0.163-1.379c0.077-0.72-0.088-1.381-0.496-1.981
			c-0.408-0.6-0.902-0.901-1.485-0.901h-7.58l-5.24,45.298c-0.079,0.696,0.1,1.334,0.533,1.913c0.434,0.58,0.946,0.87,1.54,0.87
			h1.185l-0.351,2.878h-18.635l0.35-2.878h1.165c0.581,0,1.145-0.293,1.688-0.883s0.854-1.237,0.933-1.945l5.242-45.253h-7.438
			c-0.582,0-1.154,0.301-1.715,0.903c-0.563,0.604-0.883,1.265-0.959,1.988l-0.164,1.377l-2.361-0.004l1.164-9.915h35.991
			L195.483,79.534z"/>
		<path fill="#FFFFFF" d="M237.101,126.229h-15.1l2.624-22.687c-1.141-0.66-2.597-1.699-4.369-3.117
			c-2.089-1.7-3.527-2.811-4.313-3.331l-3.372,29.134h-15.071l0.35-2.878h1.163c0.582,0,1.146-0.293,1.689-0.883
			c0.542-0.589,0.854-1.236,0.932-1.942l4.835-41.732c0.388-3.272,2.773-5.737,7.162-7.396c3.028-1.136,6.29-1.73,9.786-1.778
			c3.57-0.046,6.851,0.498,9.841,1.636c4.271,1.613,6.212,4.125,5.823,7.538l-4.834,41.781c-0.078,0.695,0.097,1.33,0.523,1.909
			c0.426,0.579,0.932,0.867,1.516,0.867h1.163L237.101,126.229z M225.115,99.295l1.883-16.258c0.095-0.895,0.144-1.743,0.144-2.545
			c0-2.216-0.374-3.96-1.116-5.232c-0.744-1.272-1.664-1.909-2.76-1.909c-1.253,0-2.39,0.801-3.406,2.4
			c-1.176,1.742-1.939,4.166-2.291,7.273l-1.085,9.763C218.349,94.343,221.229,96.514,225.115,99.295z"/>
		<path fill="#FFFFFF" d="M284.855,126.229h-15.101l4.998-43.191c0.094-0.895,0.143-1.743,0.143-2.545
			c0-2.216-0.372-3.96-1.116-5.232c-0.743-1.272-1.662-1.909-2.757-1.909c-1.252,0-2.389,0.801-3.404,2.4
			c-1.175,1.742-1.938,4.168-2.289,7.275l-5.006,43.203h-15.07l0.35-2.878h1.165c0.58,0,1.145-0.293,1.687-0.883
			c0.543-0.589,0.855-1.236,0.934-1.942l5.243-45.198c0.077-0.706-0.088-1.355-0.495-1.946c-0.409-0.589-0.903-0.884-1.485-0.884
			h-1.165l0.291-2.878h19.394c3.647-0.046,6.93,0.498,9.84,1.636c4.271,1.613,6.213,4.125,5.824,7.538L282,120.574
			c-0.078,0.695,0.097,1.33,0.523,1.909s0.933,0.867,1.515,0.867h1.166L284.855,126.229z"/>
	</g>
</g>
<rect x="91.525" y="129.502" fill="#FFFFFF" width="193.482" height="2.235"/>
<rect x="89.848" y="163.612" fill="#FFFFFF" width="193.481" height="2.237"/>
<g>
	<path fill="#FFFFFF" d="M51.243,66.721L38.588,188.838l3.635-1.146l11.25-123.897c0,0,3.309-18.815,24.413-17.66
		c0,0,16.603,1.503,20.679,16.687l0.741-2.532c0,0-7.694-22.545-31.497-15.419C67.81,44.87,50.707,47.891,51.243,66.721z"/>
	<polyline fill="#FFFFFF" points="54.218,59.018 51.006,163.316 59.862,51.361 	"/>
	<polyline fill="#FFFFFF" points="61.262,50.214 59.556,141.622 66.351,46.096 	"/>
	<polyline fill="#FFFFFF" points="69.542,46.468 69.208,100.198 74.338,45.109 	"/>
	<polyline fill="#FFFFFF" points="77.2,45.661 79.152,93.46 82.026,45.134 	"/>
	<polyline fill="#FFFFFF" points="89.544,49.504 86.312,79.327 85.964,47.646 	"/>
	<polyline fill="#FFFFFF" points="93.154,52.195 93.504,66.025 95.963,55.752 	"/>
	<path fill="#FFFFFF" d="M49.107,54.295c0,0,7.247-16.305,26.948-16.929c0,0-17.024-3.822-29.037,14.677
		C47.018,52.043,47.142,55.374,49.107,54.295z"/>
	<path fill="#FFFFFF" d="M49.948,58.931c0,0-8.01,4.826-11.869-4.529c-3.859-9.354-8.858-4.481-9.062-0.97
		c0,0,0.609-10.534,8.485-5.512c0,0,6.269,6.755,12.103,1.851c0,0,1.021,4.963,5.131,3.131c4.11-1.833,0.984-0.54,0.984-0.54
		l1.075,1.958l-3.626,5.817"/>
	<path fill="#FFFFFF" d="M36.186,43.969c0,0,11.917-3.146,12.76-16.36c0,0,14.225,4.935,22.196-5.394c0,0-3.355,8.642-16.199,9.324
		l4.124,7.507l-7.759-6.361C51.308,32.687,47.751,44.84,36.186,43.969z"/>
</g>
<path fill="#FFFFFF" d="M51.646,68.353L8.115,67.215l2.274,4.549c0,0,33.547,10.803,33.547,67.094l8.529-68.799"/>
<polyline fill="#FFFFFF" points="98.565,62.821 290.136,64.372 291.769,60.988 97.384,57.548 "/>
<polygon fill="#FFFFFF" points="90.987,90.528 81.606,191.595 91.525,131.737 97.811,131.467 97.968,130.195 89.801,128.529 "/>
<g>
	<path fill="#FFFFFF" d="M291.162,87.295c17.071-22.165,23.593-43.188,15.802-58.692C289.818-5.521,209.867,0.006,128.393,40.946
		c-11.048,5.551-21.551,11.471-31.42,17.638l0.41,0.957l14.031,1.451c7.098-4.216,14.516-8.288,22.228-12.162
		c74.704-37.539,148.011-42.605,163.732-11.316c5.51,10.966,3.214,24.942-5.308,40.088L291.162,87.295z M242.952,131.185
		l0.145-1.544c-0.679,0.515-1.361,1.03-2.051,1.544H242.952z M26.841,173.453c-7.479-14.887-0.57-35.318,16.764-56.69l-3.025-13.447
		c-26.342,27.434-38.18,54.607-28.664,73.547c13.813,27.487,68.379,29.239,131.666,7.484h-8.606
		C82.42,199.903,38.58,196.813,26.841,173.453z"/>
</g>
<g>
	<g>
		<path fill="#FFFFFF" d="M146.458,145.799c0.088,0,0.177-0.059,0.177-0.205v-0.616c0-4.464,0-5.287-0.06-6.226
			c-0.058-0.999-0.293-1.469-1.266-1.674c-0.236-0.059-0.736-0.089-1.149-0.089c-0.324,0-0.5-0.058-0.5-0.264
			c0-0.204,0.207-0.265,0.619-0.265c1.59,0,3.444,0.089,4.24,0.089c0.706,0,2.562-0.089,3.709-0.089
			c0.412,0,0.619,0.061,0.619,0.265c0,0.206-0.177,0.264-0.529,0.264c-0.236,0-0.502,0.03-0.855,0.089
			c-0.794,0.146-1.03,0.646-1.09,1.674c-0.059,0.938-0.059,1.762-0.059,6.226v5.168c0,2.701,0,5.021,0.147,6.283
			c0.088,0.823,0.265,1.469,1.149,1.586c0.412,0.06,1.06,0.117,1.501,0.117c0.324,0,0.472,0.088,0.472,0.235
			c0,0.206-0.235,0.293-0.589,0.293c-1.914,0-3.77-0.087-4.595-0.087c-0.677,0-2.531,0.087-3.68,0.087
			c-0.412,0-0.618-0.087-0.618-0.293c0-0.147,0.118-0.235,0.471-0.235c0.442,0,0.795-0.058,1.06-0.117
			c0.589-0.117,0.736-0.763,0.854-1.615c0.148-1.233,0.148-3.553,0.148-6.254v-2.585c0-0.116-0.088-0.176-0.177-0.176H135.21
			c-0.089,0-0.177,0.028-0.177,0.176v2.585c0,2.701,0,5.021,0.147,6.283c0.088,0.823,0.265,1.469,1.149,1.586
			c0.412,0.06,1.06,0.117,1.501,0.117c0.325,0,0.471,0.088,0.471,0.235c0,0.206-0.235,0.293-0.589,0.293
			c-1.914,0-3.77-0.087-4.594-0.087c-0.677,0-2.532,0.087-3.71,0.087c-0.383,0-0.589-0.087-0.589-0.293
			c0-0.147,0.117-0.235,0.471-0.235c0.442,0,0.795-0.058,1.061-0.117c0.589-0.117,0.736-0.763,0.853-1.615
			c0.148-1.233,0.148-3.553,0.148-6.254v-5.168c0-4.464,0-5.287-0.06-6.226c-0.058-0.999-0.294-1.469-1.266-1.674
			c-0.236-0.059-0.736-0.089-1.149-0.089c-0.324,0-0.5-0.058-0.5-0.264c0-0.204,0.206-0.265,0.619-0.265
			c1.59,0,3.445,0.089,4.24,0.089c0.707,0,2.562-0.089,3.71-0.089c0.413,0,0.619,0.061,0.619,0.265c0,0.206-0.177,0.264-0.53,0.264
			c-0.235,0-0.5,0.03-0.854,0.089c-0.795,0.146-1.031,0.646-1.09,1.674c-0.059,0.938-0.059,1.762-0.059,6.226v0.616
			c0,0.146,0.088,0.205,0.177,0.205H146.458z"/>
		<path fill="#FFFFFF" d="M156.264,149.206c0-4.258,3.004-9.778,10.866-9.778c6.536,0,10.6,3.611,10.6,9.337
			s-4.182,10.22-10.865,10.22C159.326,158.984,156.264,153.639,156.264,149.206z M173.873,149.676c0-5.521-3.327-8.927-7.509-8.927
			c-2.887,0-6.272,1.527-6.272,7.692c0,5.14,2.945,9.191,7.832,9.191C169.75,157.633,173.873,156.78,173.873,149.676z"/>
		<path fill="#FFFFFF" d="M184.267,139.868c0.059-0.412,0.295-0.646,0.501-0.646c0.265,0,0.441,0.116,0.795,0.793l6.949,13.918
			l6.95-14.095c0.205-0.41,0.442-0.616,0.677-0.616c0.206,0,0.501,0.264,0.589,0.793l2.356,15.416
			c0.234,1.556,0.471,2.231,1.267,2.467c0.735,0.205,1.146,0.234,1.472,0.234c0.235,0,0.412,0.088,0.412,0.235
			c0,0.206-0.295,0.293-0.678,0.293c-0.647,0-4.328-0.118-5.358-0.176c-0.619-0.029-0.767-0.147-0.767-0.293
			c0-0.117,0.119-0.206,0.295-0.266c0.147-0.059,0.206-0.353,0.117-1.057l-1.441-10.807h-0.089l-5.565,11.16
			c-0.589,1.174-0.737,1.408-1.032,1.408c-0.322,0-0.616-0.499-1.029-1.263c-0.618-1.145-2.68-4.963-2.975-5.667
			c-0.205-0.471-1.737-3.612-2.59-5.344h-0.09l-1.236,9.749c-0.06,0.438-0.089,0.763-0.089,1.174c0,0.47,0.354,0.646,0.795,0.734
			c0.441,0.088,0.679,0.117,0.913,0.117c0.236,0,0.414,0.118,0.414,0.235c0,0.234-0.237,0.293-0.62,0.293
			c-1.089,0-2.268-0.087-2.738-0.087c-0.5,0-1.737,0.087-2.563,0.087c-0.264,0-0.471-0.059-0.471-0.293
			c0-0.117,0.147-0.235,0.413-0.235c0.205,0,0.382,0,0.795-0.058c0.706-0.089,0.941-1.088,1.06-1.91L184.267,139.868z"/>
		<path fill="#FFFFFF" d="M210.474,147.003c0-3.788,0-4.492-0.028-5.284c-0.06-0.854-0.294-1.117-1.12-1.353
			c-0.206-0.058-0.647-0.088-1.03-0.088c-0.264,0-0.44-0.088-0.44-0.264c0-0.177,0.206-0.234,0.588-0.234
			c1.354,0,3.004,0.058,3.74,0.058c0.824,0,6.565,0.03,7.066,0c0.472-0.029,0.884-0.117,1.09-0.147
			c0.148-0.028,0.295-0.116,0.412-0.116c0.147,0,0.178,0.116,0.178,0.234c0,0.177-0.148,0.47-0.207,1.615
			c-0.029,0.264-0.088,1.351-0.147,1.645c-0.029,0.116-0.087,0.411-0.293,0.411c-0.177,0-0.207-0.118-0.207-0.323
			c0-0.176-0.03-0.617-0.177-0.909c-0.207-0.442-0.412-0.795-1.709-0.911c-0.441-0.059-3.533-0.117-4.063-0.117
			c-0.116,0-0.177,0.088-0.177,0.233v6.168c0,0.146,0.031,0.264,0.177,0.264c0.59,0,3.946,0,4.536-0.058
			c0.618-0.061,1.001-0.118,1.236-0.382c0.207-0.177,0.294-0.323,0.412-0.323s0.206,0.117,0.206,0.264s-0.059,0.558-0.206,1.821
			c-0.059,0.498-0.118,1.498-0.118,1.674c0,0.205-0.028,0.557-0.264,0.557c-0.178,0-0.237-0.088-0.237-0.206
			c-0.028-0.264-0.028-0.587-0.087-0.909c-0.147-0.499-0.472-0.881-1.443-0.969c-0.471-0.061-3.417-0.118-4.063-0.118
			c-0.117,0-0.148,0.118-0.148,0.265v1.998c0,0.851-0.029,2.964,0,3.699c0.061,1.702,0.854,2.084,3.505,2.084
			c0.678,0,1.767-0.028,2.444-0.323c0.647-0.294,0.942-0.821,1.119-1.849c0.059-0.266,0.117-0.382,0.295-0.382
			c0.205,0,0.233,0.322,0.233,0.587c0,0.559-0.205,2.26-0.352,2.761c-0.177,0.644-0.413,0.644-1.385,0.644
			c-1.942,0-3.504-0.028-4.771-0.087c-1.267-0.029-2.237-0.058-3.003-0.058c-0.294,0-0.854,0.028-1.473,0.028
			c-0.618,0.029-1.267,0.059-1.797,0.059c-0.323,0-0.5-0.087-0.5-0.264c0-0.118,0.089-0.265,0.412-0.265
			c0.384,0,0.679-0.029,0.913-0.089c0.53-0.117,0.678-0.586,0.767-1.32c0.116-1.057,0.116-3.024,0.116-5.315V147.003z"/>
		<path fill="#FFFFFF" d="M226.021,158.337c-0.413-0.177-0.501-0.294-0.501-0.851c0-1.351,0.117-2.907,0.147-3.318
			c0-0.382,0.117-0.646,0.323-0.646c0.235,0,0.267,0.235,0.267,0.411c0,0.323,0.087,0.852,0.234,1.292
			c0.559,1.851,2.504,2.466,4.122,2.466c2.237,0,3.594-1.408,3.594-3.169c0-1.088-0.267-2.174-2.563-3.524l-1.501-0.881
			c-3.063-1.792-4.063-3.465-4.063-5.668c0-3.054,2.943-5.021,6.536-5.021c1.679,0,3.004,0.234,3.681,0.41
			c0.236,0.06,0.354,0.147,0.354,0.323c0,0.322-0.089,1.027-0.089,2.995c0,0.528-0.117,0.793-0.323,0.793
			c-0.176,0-0.266-0.146-0.266-0.441c0-0.233-0.117-0.997-0.677-1.644c-0.382-0.47-1.207-1.174-2.886-1.174
			c-1.854,0-3.534,0.969-3.534,2.671c0,1.116,0.412,1.997,2.739,3.29l1.059,0.587c3.417,1.878,4.478,3.787,4.478,6.048
			c0,1.851-0.707,3.349-2.591,4.67c-1.237,0.88-2.945,1.028-4.329,1.028C228.73,158.984,227.141,158.836,226.021,158.337z"/>
	</g>
</g>
<g>
	<path fill="#FFFFFF" d="M252.642,154.129c0,1.771,0,2.725,0.293,2.974c0.235,0.207,0.595,0.304,1.678,0.304
		c0.735,0,1.275-0.014,1.624-0.388c0.165-0.179,0.332-0.566,0.359-0.829c0.015-0.125,0.042-0.207,0.152-0.207
		c0.099,0,0.111,0.069,0.111,0.234c0,0.152-0.096,1.189-0.208,1.592c-0.083,0.304-0.153,0.373-0.874,0.373
		c-0.999,0-1.721-0.028-2.346-0.042c-0.622-0.027-1.122-0.041-1.691-0.041c-0.152,0-0.458,0-0.791,0.014
		c-0.318,0-0.681,0.027-0.957,0.027c-0.18,0-0.277-0.041-0.277-0.138c0-0.069,0.056-0.111,0.223-0.111
		c0.207,0,0.373-0.027,0.499-0.055c0.278-0.055,0.346-0.359,0.402-0.761c0.068-0.582,0.068-1.674,0.068-2.946v-2.437
		c0-2.103,0-2.489-0.028-2.933c-0.027-0.47-0.137-0.692-0.597-0.788c-0.109-0.027-0.276-0.042-0.457-0.042
		c-0.152,0-0.234-0.027-0.234-0.124s0.097-0.124,0.305-0.124c0.652,0,1.526,0.042,1.9,0.042c0.332,0,1.346-0.042,1.887-0.042
		c0.194,0,0.291,0.027,0.291,0.124s-0.082,0.124-0.249,0.124c-0.152,0-0.376,0.015-0.542,0.042
		c-0.373,0.068-0.485,0.305-0.513,0.788c-0.028,0.443-0.028,0.83-0.028,2.933V154.129z"/>
	<path fill="#FFFFFF" d="M261.035,154.129c0,1.771,0,2.725,0.291,2.974c0.236,0.207,0.598,0.304,1.679,0.304
		c0.736,0,1.276-0.014,1.623-0.388c0.167-0.179,0.335-0.566,0.362-0.829c0.014-0.125,0.041-0.207,0.151-0.207
		c0.098,0,0.11,0.069,0.11,0.234c0,0.152-0.097,1.189-0.207,1.592c-0.082,0.304-0.152,0.373-0.874,0.373
		c-0.999,0-1.72-0.028-2.345-0.042c-0.624-0.027-1.124-0.041-1.692-0.041c-0.153,0-0.459,0-0.79,0.014
		c-0.32,0-0.681,0.027-0.96,0.027c-0.179,0-0.276-0.041-0.276-0.138c0-0.069,0.057-0.111,0.222-0.111c0.21,0,0.375-0.027,0.5-0.055
		c0.276-0.055,0.347-0.359,0.401-0.761c0.071-0.582,0.071-1.674,0.071-2.946v-2.437c0-2.103,0-2.489-0.028-2.933
		c-0.027-0.47-0.14-0.692-0.597-0.788c-0.11-0.027-0.278-0.042-0.458-0.042c-0.152,0-0.236-0.027-0.236-0.124
		s0.098-0.124,0.306-0.124c0.652,0,1.526,0.042,1.901,0.042c0.332,0,1.344-0.042,1.886-0.042c0.194,0,0.292,0.027,0.292,0.124
		s-0.084,0.124-0.25,0.124c-0.151,0-0.374,0.015-0.542,0.042c-0.373,0.068-0.484,0.305-0.512,0.788
		c-0.028,0.443-0.028,0.83-0.028,2.933V154.129z"/>
	<path fill="#FFFFFF" d="M267.833,156.826c-1.36-1.191-1.72-2.739-1.72-4.082c0-0.94,0.29-2.571,1.622-3.79
		c0.999-0.914,2.317-1.467,4.384-1.467c0.861,0,1.375,0.056,2.013,0.139c0.527,0.069,0.971,0.194,1.388,0.234
		c0.152,0.015,0.207,0.084,0.207,0.166c0,0.111-0.042,0.277-0.069,0.762c-0.027,0.457-0.013,1.217-0.04,1.494
		c-0.015,0.207-0.042,0.317-0.167,0.317c-0.112,0-0.14-0.11-0.14-0.303c-0.014-0.431-0.194-0.914-0.54-1.272
		c-0.459-0.485-1.541-0.859-2.817-0.859c-1.206,0-1.997,0.306-2.607,0.859c-1.014,0.926-1.275,2.24-1.275,3.582
		c0,3.293,2.511,4.925,4.37,4.925c1.233,0,1.982-0.139,2.538-0.775c0.234-0.263,0.416-0.663,0.472-0.912
		c0.042-0.222,0.069-0.278,0.18-0.278c0.097,0,0.125,0.098,0.125,0.209c0,0.166-0.167,1.369-0.305,1.84
		c-0.069,0.236-0.126,0.304-0.362,0.4c-0.555,0.222-1.608,0.318-2.496,0.318C270.691,158.333,269.096,157.918,267.833,156.826z"/>
</g>
<g>
	<path fill="#FFFFFF" d="M151.814,184.346C21.699,234.361,6.807,181.955,6.152,179.338c14.08,61.638,118.701,18.132,147.194,5.008
		H151.814z M6.152,179.338c-0.009-0.036-0.019-0.072-0.027-0.109C6.125,179.229,6.136,179.271,6.152,179.338z"/>
</g>
</svg>
